<svg xmlns="http://www.w3.org/2000/svg" xmlns:xlink="http://www.w3.org/1999/xlink" width="151.868" height="62">
  <defs>
    <path id="g" d="M53.096 111H9V49h44.096z"/>
    <linearGradient x1="16.13" y1="43.406" x2="63.854" y2="41.992" id="c" gradientTransform="scale(.52977 1.8876)" gradientUnits="userSpaceOnUse">
      <stop stop-color="#E1C567" offset="0%"/>
      <stop stop-color="#58AA67" offset="100%"/>
    </linearGradient>
    <linearGradient x1="16.624" y1="62.462" x2="44.947" y2="52.609" id="d" gradientTransform="scale(.94158 1.06205)" gradientUnits="userSpaceOnUse">
      <stop stop-color="#E1C567" offset="0%"/>
      <stop stop-color="#58AA67" offset="100%"/>
    </linearGradient>
    <linearGradient x1="15.729" y1="83.526" x2="42.677" y2="91.907" id="e" gradientTransform="scale(.90679 1.1028)" gradientUnits="userSpaceOnUse">
      <stop stop-color="#E1C567" offset="0%"/>
      <stop stop-color="#58AA67" offset="100%"/>
    </linearGradient>
    <linearGradient x1="22.429" y1="58.625" x2="54.971" y2="66.792" id="f" gradientTransform="scale(1.01154 .9886)" gradientUnits="userSpaceOnUse">
      <stop stop-color="#E1C567" offset="0%"/>
      <stop stop-color="#45AD96" offset="100%"/>
    </linearGradient>
    <linearGradient x1="16.525" y1="143.357" x2="36.761" y2="143.357" id="h" gradientTransform="scale(1.45444 .68755)" gradientUnits="userSpaceOnUse">
      <stop stop-color="#E1C567" offset="0%"/>
      <stop stop-color="#45AD96" offset="100%"/>
    </linearGradient>
    <linearGradient x1="24.73" y1="78.584" x2="50.023" y2="93.778" id="b" gradientTransform="scale(1.09694 .91162)" gradientUnits="userSpaceOnUse">
      <stop stop-color="#E1C567" offset="0%"/>
      <stop stop-color="#45AD96" offset="100%"/>
    </linearGradient>
    <path d="M49.943 85.49c-10.171 0-18.483-8.04-19.074-18.182a19.065 19.065 0 0 1 3.117-.26c10.17 0 18.483 8.04 19.074 18.182-1.015.168-2.056.26-3.117.26z" id="a"/>
    <linearGradient x1="26.206" y1="100.847" x2="44.686" y2="110.534" id="j" gradientTransform="scale(1.41475 .70684)" gradientUnits="userSpaceOnUse">
      <stop stop-color="#E1C567" offset="0%"/>
      <stop stop-color="#45AD96" offset="100%"/>
    </linearGradient>
    <linearGradient x1="37.422" y1="111.849" x2="26.774" y2="72.641" id="k" gradientTransform="scale(1.41478 .70682)" gradientUnits="userSpaceOnUse">
      <stop stop-color="#E1C567" offset="0%"/>
      <stop stop-color="#45AD96" offset="100%"/>
    </linearGradient>
  </defs>
  <g transform="translate(-9 -49)" fill="none" fill-rule="evenodd">
    <path d="M49.479 74.175a11.841 11.841 0 0 1 9.999-5.457c.657 0 1.3.056 1.929.158a11.644 11.644 0 0 1-3.76 7.888 11.844 11.844 0 0 1-8.046 3.129l-.122-.001v22.245c-.69.642-1.414 1.25-2.168 1.818v-43.44c.754.57 1.478 1.177 2.168 1.82z" fill="#45ad96"/>
    <mask id="i" fill="#fff">
      <use xlink:href="#a" width="100%" height="100%"/>
    </mask>
    <use xlink:href="#a" width="100%" height="100%" transform="translate(-4.881 6.237)" fill="url(#b)"/>
    <path d="M15.653 65.777a32.021 32.021 0 0 0 3.236 10.527 20.165 20.165 0 0 0-.512 4.142 32.008 32.008 0 0 0-4.114 12.303 26.951 26.951 0 0 1-2.944-12.283 26.944 26.944 0 0 1 4.334-14.689z" fill="url(#c)"/>
    <path d="M35.912 53.453a32.45 32.45 0 0 0-11.084 12.64 20.078 20.078 0 0 0-5.94 10.211 32.043 32.043 0 0 1-3.235-10.527c4.398-6.798 11.755-11.513 20.259-12.324z" fill="url(#d)"/>
    <path d="M18.377 80.446c-.002.132-.01.262-.01.395 0 6.352 2.956 12.012 7.566 15.698a32.484 32.484 0 0 0 10.597 10.987c-9.741-.707-18.057-6.526-22.267-14.777a32.03 32.03 0 0 1 4.114-12.303z" fill="url(#e)"/>
    <path d="M38.533 53.326c-.884 0-1.758.045-2.62.127a32.451 32.451 0 0 0-11.085 12.64 20.12 20.12 0 0 1 13.705-5.363c2.107 0 4.134.332 6.043.93V54a27.35 27.35 0 0 0-6.043-.674z" fill="url(#f)"/>
    <use xlink:href="#g" width="100%" height="100%"/>
    <path d="M25.934 96.54a32.483 32.483 0 0 0 10.595 10.987c.663.048 1.33.08 2.004.08 2.199 0 4.336-.262 6.383-.753v-6.938a20.152 20.152 0 0 1-6.383 1.037c-4.77 0-9.147-1.654-12.6-4.414z" fill="url(#h)"/>
    <use height="100%" width="100%" xlink:href="#g"/>
    <path mask="url(#i)" d="M56.905 72.53c.609.869 1.13 1.774 1.574 2.702-8.646 5.332-20 3.135-25.833-5.196a18.929 18.929 0 0 1-1.575-2.703c8.646-5.332 20-3.135 25.834 5.196z" fill="url(#j)"/>
    <path d="M30.065 66.408c-.61-.87-1.13-1.775-1.575-2.703 8.646-5.332 20-3.135 25.834 5.196.61.87 1.13 1.775 1.575 2.703-8.646 5.332-20 3.135-25.834-5.196z" mask="url(#i)" fill="url(#k)"/>
    <g>
      <text font-size="65.229" font-weight="400" data-text-alignment="L" x="-13.788" y="-27.787" transform="matrix(.7455 0 0 .95882 71.088 76.207)" font-family="Nova Mono" fill="#43ac95" stroke-width="3.624">
        <tspan x="-13.788" y="30.195">SNS</tspan>
      </text>
    </g>
  </g>
</svg>